<svg width="745" height="540" viewBox="0 0 745 540" fill="none" xmlns="http://www.w3.org/2000/svg">
<path d="M269.555 132.103C276.827 124.851 284.494 118.067 293.505 112.842C300.065 109.022 306.625 107.384 314.292 107.384C322.908 107.384 331.286 105.045 339.427 102.003C348.833 98.4944 358.239 94.9853 366.854 89.7607C367.091 89.6048 367.407 89.6048 367.565 89.3709C371.517 84.8481 376.023 86.7196 380.37 88.4351C388.432 91.4763 393.49 97.7146 397.442 104.889C400.683 110.815 403.687 116.897 405.505 123.37C408.508 134.053 406.532 143.956 400.367 153.703C398.628 149.493 399.26 145.75 400.13 141.929C401.315 136.704 402.343 131.479 402.106 126.099C402.106 125.319 402.264 124.539 401.553 123.604C399.418 123.058 397.996 123.604 397.047 126.099C393.57 134.988 389.301 143.41 383.531 151.052C378.473 157.758 372.624 163.529 365.905 168.909C365.352 167.116 366.538 166.102 367.012 164.854C370.49 154.405 373.967 143.956 379.184 134.131C380.37 131.869 380.133 129.374 380.528 126.957C380.686 126.021 380.844 124.695 379.421 124.383C378.157 124.149 376.813 123.838 375.864 125.241C374.6 127.035 373.493 128.906 372.466 130.856C366.143 142.864 357.053 152.222 344.96 158.694C331.681 165.868 316.98 168.519 302.436 171.639C301.725 171.794 300.855 172.028 300.381 171.327C302.515 169.065 304.491 166.648 306.704 164.542C316.505 154.873 324.963 144.19 330.733 131.713C331.523 129.92 333.736 127.347 331.365 125.943C329.231 124.695 328.045 127.814 326.781 129.296C320.457 136.86 315.399 145.438 308.68 152.768C296.587 166.102 281.411 174.758 264.813 181.23C256.435 184.505 247.582 185.363 238.73 186.221C236.438 186.455 234.066 185.831 231.142 185.597C244.974 176.863 257.067 166.648 270.978 158.928C276.195 156.043 280.779 152.222 284.336 147.153C270.346 149.804 258.095 156.199 246.239 163.373C245.527 163.295 245.132 162.905 245.211 162.125C252.008 156.667 258.095 150.428 265.287 145.438C272.559 140.447 280.226 136.002 287.656 131.245C290.106 129.686 292.556 127.97 293.9 124.695C284.968 124.461 277.697 127.736 270.82 132.025C270.188 132.415 269.872 132.337 269.555 132.103Z" fill="#801C51"/>
<path d="M191.835 511.618C186.876 506.714 184.797 500.41 183.117 494.106C178.798 477.529 183.197 462.508 193.915 449.433C201.273 440.405 214.55 435.346 227.507 440.405C241.743 446.009 253.261 454.103 259.899 467.956C265.178 478.93 264.618 489.982 259.579 500.877C257.66 505.002 255.74 509.127 252.301 512.396C251.341 513.719 249.822 513.641 248.462 513.641C231.826 513.641 215.11 513.719 198.474 513.563C196.234 513.563 193.595 513.797 191.835 511.618Z" fill="#801C51"/>
<path d="M473.792 512.412C469.418 505.053 466.918 496.997 468.481 488.631C472.543 466.631 487.306 454.856 508.007 448.582C518.631 445.406 531.911 452.455 537.847 460.589C545.19 470.659 548.862 481.969 548.159 494.518C547.846 500.792 546.44 506.912 543.159 512.49C542.222 513.806 540.738 513.652 539.41 513.652C518.787 513.652 498.165 513.652 477.62 513.652C476.136 513.574 474.808 513.574 473.792 512.412Z" fill="#801C51"/>
<path d="M745 529.875C703.224 529.875 662.163 529.875 621.419 529.875C619.831 531.198 620.863 532.888 619.275 534.358C613.159 534.358 606.567 534.358 599.975 534.358C598.387 534.358 597.91 533.476 597.91 532.227C597.91 524.29 597.91 516.279 597.91 508.342C597.91 506.798 598.704 506.137 600.372 506.137C606.17 506.137 612.047 506.21 617.845 506.137C621.181 506.063 619.831 508.709 620.784 510.032C622.134 510.914 623.643 510.546 625.073 510.546C663.036 510.546 701 510.62 738.964 510.62C739.6 510.62 740.314 510.62 740.95 510.62C744.762 510.693 744.921 510.767 745 514.368C745 519.292 745 524.29 745 529.875Z" fill="#801C51"/>
<path d="M147.011 534.358C139.857 534.358 133.021 534.358 126.345 534.358C124.914 533.238 125.947 531.521 124.994 530.401C123.563 529.58 121.973 529.953 120.383 529.953C82.3902 529.953 44.3969 529.953 6.48316 529.953C-1.22677 529.953 0.124448 530.401 0.0449637 523.681C-0.0345201 519.5 0.0449637 515.244 0.0449637 510.466C41.8534 510.466 83.4235 510.466 124.437 510.466C126.027 508.823 125.073 507.405 126.186 506.135C132.942 506.135 139.857 506.135 147.09 506.135C147.011 515.394 147.011 524.652 147.011 534.358Z" fill="#801C51"/>
<path d="M269.346 119.791C265.741 123.868 262.456 127.474 259.091 131.237C254.684 126.22 250.999 121.359 246.673 116.969C244.109 114.303 241.144 112.03 238.26 109.756C235.857 107.875 233.373 107.483 230.409 108.032C229.688 110.776 230.248 113.049 231.851 115.166C235.776 120.418 239.222 125.985 242.506 131.629C244.269 134.765 247.073 137.039 249.717 140.018C243.949 146.838 241.225 155.776 233.613 161.812C224.72 155.776 217.67 148.406 214.145 137.901C210.059 125.671 212.462 113.99 216.708 102.465C219.432 95.1745 223.198 88.5107 228.726 82.8661C230.088 81.455 231.61 80.2006 233.693 79.0247C246.512 91.8818 256.607 107.326 269.346 119.791Z" fill="#801C51"/>
<path d="M251.699 514.843C261.448 514.241 271.197 514.692 280.945 514.692C284.483 514.692 287.943 514.391 291.481 514.993C292.031 514.993 292.503 514.993 293.053 514.993C295.647 514.767 298.321 514.166 300.915 514.993C302.409 517.699 301.623 520.631 301.544 523.487C301.544 525.367 299.893 525.517 298.399 525.517C294.704 525.517 291.087 525.517 287.392 525.517C274.42 525.517 261.448 525.667 248.475 525.442C237.075 525.292 225.833 527.697 214.433 526.494C196.429 524.615 178.424 525.968 160.42 525.517C158.691 525.442 157.04 525.367 155.389 526.043C155.074 526.043 154.838 526.118 154.524 526.118C151.458 523.487 153.58 520.105 153.03 517.023C152.794 515.82 153.03 514.467 154.603 514.016C158.927 514.918 163.408 514.316 167.732 514.467C174.1 514.692 180.39 514.241 186.758 514.918C206.492 512.587 226.383 514.316 246.117 513.79C248.239 513.79 250.126 513.489 251.699 514.843Z" fill="#801C51"/>
<path d="M548.966 514.833C559.81 514.052 570.573 514.599 581.416 514.521C584.685 514.521 588.034 513.974 591.223 514.911C592.419 518.345 592.578 521.779 591.223 525.135C590.585 525.681 589.708 525.603 588.99 525.603C575.676 525.603 562.281 525.603 548.966 525.525C548.169 525.525 547.372 525.291 546.654 525.213C542.269 524.042 537.964 523.808 533.738 526.071C532.463 526.774 530.948 526.774 529.513 526.774C515.48 526.852 501.528 526.852 487.495 526.774C485.343 526.774 483.27 526.384 481.436 525.369C478.725 525.525 475.935 525.681 473.224 525.291C462.939 524.979 452.574 524.042 442.289 525.213C441.013 525.447 439.818 525.603 438.542 525.837C433.519 525.603 436.389 521.779 436.07 519.75C435.831 517.955 434.396 514.833 438.303 514.365C438.701 514.287 439.02 514.599 439.419 514.755C440.615 514.443 441.891 514.443 443.086 514.833C452.096 515.379 461.185 515.613 470.194 514.833C471.151 514.443 472.108 514.443 473.065 514.755C474.34 513.584 475.935 513.662 477.45 513.662C498.179 513.896 518.909 513.584 539.718 513.74C542.748 513.74 545.618 515.769 548.966 514.833Z" fill="#801C51"/>
<path d="M360.427 62.0894C364.497 65.2158 365.984 69.6586 366.688 74.2659C367.236 77.6392 364.966 80.1897 362.54 82.082C357.453 86.1957 351.428 88.664 345.636 91.2145C336.95 94.9991 328.028 98.4546 318.716 100.676C317.307 101.005 315.898 101.087 314.49 101.416C307.994 102.651 303.925 97.5496 306.351 91.0499C307.368 88.3349 308.855 86.1135 311.829 85.0439C321.22 81.5884 330.376 77.4747 339.532 73.1964C346.576 69.9054 354.01 67.3549 360.427 62.0894Z" fill="#801C51"/>
<path d="M429.764 514.133C430.408 526.924 423.891 533.572 414.88 536.181C400.318 540.389 386.4 537.359 372.964 530.795C371.597 530.122 370.953 529.281 370.631 527.766C370.229 525.41 369.988 523.053 369.988 520.697C369.907 517.415 369.585 514.302 366.77 511.777C387.607 518.257 408.605 518.678 429.764 514.133Z" fill="#801C51"/>
<path d="M364.86 513.661C363.544 517.604 363.544 520.941 363.08 524.277C362.615 527.689 361.222 530.04 357.661 531.253C346.669 535.045 335.522 537.85 323.833 535.196C314.157 532.997 307.577 527.538 306.184 517.377C306.107 516.618 305.874 515.936 305.642 514.723C325.381 519.424 344.811 519.5 364.86 513.661Z" fill="#801C51"/>
<path d="M350.956 33.865C355.093 39.7462 357.77 45.9369 357.121 52.9788C356.797 56.1515 354.201 58.2409 351.281 59.866C345.927 62.8839 340.005 64.6638 334.408 67.0627C328.081 69.6937 321.591 72.0152 315.183 74.5689C314.047 75.0332 313.074 75.7297 311.533 74.8011C310.884 68.3782 312.263 61.9553 314.453 55.7646C315.589 52.5919 319.077 51.818 321.916 51.0442C331.731 48.2584 339.762 42.8415 347.062 36.2639C347.955 35.4127 348.928 34.4841 350.956 33.865Z" fill="#801C51"/>
<path d="M481.386 525.786C482.892 525.164 484.479 525.32 486.065 525.32C501.132 525.32 516.2 525.32 531.267 525.32C533.408 525.32 535.312 525.087 537.294 523.921C540.625 521.979 543.559 523.688 546.335 525.63C539.277 524.698 533.725 526.718 528.412 531.768C523.575 536.274 517.151 539.07 510.093 539.847C506.128 540.313 502.48 539.692 498.912 538.293C492.647 535.73 486.461 532.855 482.734 526.718C482.417 526.252 481.862 526.097 481.386 525.786Z" fill="#801C51"/>
<path d="M319.623 43.2753C315.57 39.2516 317.397 34.8995 318.351 30.7936C319.464 26.0309 322.086 21.843 324.152 17.4087C326.616 12.0711 328.602 6.48719 329.635 0C332.575 2.54561 334.244 5.33757 335.754 8.29376C337.979 12.6459 339.568 17.2444 341.317 21.843C342.668 25.2097 341.714 27.4269 339.41 29.7261C333.767 35.5564 327.092 39.8264 319.623 43.2753Z" fill="#801C51"/>
<path d="M154.73 526.453C156.311 524.597 158.602 525.191 160.578 525.191C204.828 525.191 249.158 525.191 293.408 525.191C301.468 525.191 300.757 525.785 300.836 518.138C300.836 517.247 300.836 516.431 300.836 515.54C302.733 518.806 301.231 522.147 301.626 525.191C300.283 526.304 299.019 526.007 297.913 526.007C278.948 526.007 259.983 526.007 241.019 525.933C238.174 525.933 235.725 526.527 233.117 527.789C225.373 531.575 217.471 531.575 209.806 527.492C207.989 526.527 206.251 526.007 204.275 526.007C188.866 526.007 173.458 526.082 158.049 526.082C157.101 526.082 155.916 526.304 154.73 526.453Z" fill="#801C51"/>
<path d="M548.245 514.252C545.981 515.37 543.794 516.248 541.295 514.731C539.967 513.853 538.249 514.252 536.688 514.252C517.555 514.252 498.344 514.252 479.212 514.252C477.415 514.252 475.619 514.172 473.745 514.092C475.151 513.374 474.292 512.575 473.901 511.777C497.017 511.777 520.132 511.777 543.325 511.777C543.013 512.895 543.013 513.853 544.497 514.012C545.668 514.092 546.918 514.172 548.245 514.252Z" fill="#801C51"/>
<path d="M252.154 514.634C235.423 514.634 218.614 514.708 201.884 514.708C198.648 514.708 195.334 514.561 192.098 515.294C190.441 515.66 188.705 515.733 187.205 514.708C188.862 514.121 190.756 514.927 192.256 514.195C192.966 513.242 192.098 512.583 192.019 511.777C211.906 513.316 231.793 512.217 251.759 512.436C251.286 513.316 250.97 514.121 252.154 514.634Z" fill="#801C51"/>
<path d="M469.924 515.54C465.204 516.963 460.406 517.787 455.451 517.263C451.36 516.813 447.113 517.188 443.18 515.54C452.068 515.54 461.035 515.54 469.924 515.54Z" fill="#801C51"/>
<path d="M443.18 524.701C447.344 523.182 451.744 522.785 456.066 523.248C460.466 523.71 464.866 523.71 469.344 523.776C470.916 523.776 472.487 523.644 473.744 524.701C469.108 524.767 464.473 524.9 459.916 524.833C454.258 524.833 448.68 525.164 443.18 524.701Z" fill="#801C51"/>
<path d="M439.36 514.455C438.706 514.699 437.889 514.699 437.48 515.107C435.682 516.984 436.336 524.083 438.461 526.123C436.908 527.183 435.682 527.265 435.6 524.899C435.519 522.043 435.519 519.187 435.6 516.413C435.764 513.231 436.009 513.149 439.36 514.455Z" fill="#801C51"/>
<path d="M154.741 513.816C153.238 518.151 153.238 522.406 154.647 526.742C153.426 527.063 152.862 526.501 152.862 525.537C152.862 521.924 152.768 518.392 152.862 514.779C152.862 513.816 153.52 513.414 154.741 513.816Z" fill="#801C51"/>
<path d="M590.27 524.948C590.27 521.788 590.27 518.7 590.27 515.54C592.742 518.7 592.918 521.788 590.27 524.948Z" fill="#801C51"/>
<path d="M364.916 419.586C364.916 418.368 364.543 417.04 365.724 415.822C367.278 416.708 366.47 418.036 366.781 419.088C365.973 418.59 365.413 419.088 364.916 419.586Z" fill="#801C51"/>
<path d="M364.793 476.031C362.237 474.204 362.63 472.295 364.203 470.386C365.382 472.212 364.596 474.121 364.793 476.031Z" fill="#801C51"/>
<path d="M475.159 232.876C471.749 214.98 465.009 198.174 456.445 182.069C449.863 169.62 441.854 158.105 433.211 146.978C431.229 144.489 430.039 141.999 431.467 138.809C435.352 138.031 439.079 139.198 442.806 139.82C446.216 140.365 449.467 139.898 452.322 138.498C463.978 132.507 470.005 122.781 470.798 109.943C471.194 103.563 470.56 97.3386 469.608 91.0363C467.467 76.7201 464.771 62.5595 458.824 49.177C457.476 46.1426 455.89 43.186 452.559 41.3965C445.185 46.5316 440.824 53.7675 436.78 61.0812C430.357 72.6742 425.361 84.8897 420.127 97.1051C417.748 102.785 416.559 109.009 412.594 114.067C411.96 114.845 412.436 115.778 412.594 116.634C414.101 125.66 415.449 134.685 413.466 143.944C411.722 151.958 408.154 159.038 402.92 165.263C400.303 168.297 396.259 167.363 394.99 163.629C394.435 161.917 394.277 160.127 394.277 158.26C394.277 155.926 394.515 153.514 393.96 151.024C393.484 151.335 393.246 151.413 393.087 151.569C386.268 163.084 376.673 171.876 365.254 179.112C362.082 181.135 359.148 180.824 355.739 180.59C354.708 172.265 360.576 165.963 362.241 157.871C361.21 158.494 360.734 158.727 360.338 159.116C354.866 164.096 348.523 167.752 341.545 170.242C333.06 173.277 324.337 175.611 315.298 177.089C306.416 178.49 297.694 180.201 288.654 180.279C287.623 180.279 286.909 180.824 286.116 181.135C278.901 184.247 272.081 188.215 264.389 190.005C261.138 190.705 260.107 192.65 259.949 195.451C259.394 211.246 255.746 226.651 253.288 242.212C251.781 251.627 251.94 261.119 252.812 270.456C254.081 284.305 259.076 297.065 266.054 309.125C271.685 318.928 278.504 327.798 287.306 335.034C296.821 342.892 307.526 348.961 319.342 353.085C330.76 357.131 342.496 360.01 354.628 360.865C367.554 361.721 380.4 361.254 393.167 358.687C402.206 356.819 411.087 354.174 419.414 350.284C436.145 342.426 449.943 330.988 460.013 315.583C469.132 301.578 474.366 286.094 476.666 269.677C478.41 257.073 477.459 244.935 475.159 232.876ZM456.366 77.187C448.833 93.3705 445.899 110.565 444.154 128.149C436.224 111.81 442.251 86.757 456.366 77.187Z" fill="#801C51"/>
<path d="M331.147 197.813C321.98 197.735 317.476 200.626 316.686 207.034C315.895 213.286 319.847 218.756 326.011 219.929C332.411 221.179 336.995 217.194 339.919 207.972C346.478 218.053 346.083 239.153 328.934 250.406C316.449 258.611 294.243 259.705 281.441 238.84C270.852 221.57 280.967 201.642 292.82 194.687C307.203 186.326 325.931 190.389 331.147 197.813Z" fill="#0E0E0E"/>
<path d="M433.429 191.859C422.83 192.695 418.991 195.051 418.683 200.902C418.299 207.589 420.066 211.16 426.901 213.212C430.51 214.275 433.889 213.212 436.884 210.704C439.803 208.272 439.88 204.777 441.032 201.434C447.483 211.16 447.022 229.397 433.966 240.415C420.219 251.965 400.789 250.749 388.732 237.907C376.905 225.293 377.366 205.841 389.654 193.683C401.097 182.133 421.448 181.145 433.429 191.859Z" fill="#0E0E0E"/>
<path d="M404.276 278.469C404.004 268.505 404.48 269.546 397.333 266.572C400.056 264.49 403.527 265.01 405.501 267.761C407.747 270.959 407.203 275.718 404.276 278.469Z" fill="#0E0E0E"/>
<path d="M328.564 270.77C324.8 271.681 320.947 270.998 319.602 274.338C318.527 276.843 319.602 279.575 318.885 282.232C314.942 279.955 314.046 275.476 316.735 272.136C319.513 268.645 323.635 268.038 328.564 270.77Z" fill="#0E0E0E"/>
<path d="M465.184 333.034C464.387 333.19 464.227 333.19 464.148 333.268C462.873 334.594 461.598 335.842 460.323 337.168C450.92 347.384 439.844 355.338 427.174 361.343C413.07 368.05 398.169 371.715 382.631 372.651C363.427 373.899 344.303 373.665 325.498 368.908C310.517 365.086 296.732 358.848 284.221 349.879C280.237 346.994 276.492 343.874 272.348 340.677C271.95 342.471 271.552 343.874 271.233 345.278C267.806 360.953 261.83 375.536 252.348 388.638C245.256 398.464 237.766 408.056 230.514 417.727C227.566 421.626 224.379 425.369 221.59 429.892C238.961 431.764 253.065 438.939 263.743 452.274C274.819 466.078 275.695 481.909 273.225 498.753C278.644 498.363 283.664 497.818 289.401 498.597C287.17 493.762 285.735 489.629 284.46 485.418C281.432 475.514 279.122 465.454 276.89 455.316C274.022 442.526 271.313 429.736 270.914 416.635C270.834 414.685 270.595 412.424 271.95 410.162C272.428 410.786 272.747 411.02 272.906 411.41C275.297 418.117 277.926 424.667 279.361 431.686C283.185 450.558 288.684 469.041 295.457 487.134C298.804 496.102 304.7 501.951 314.023 504.758C324.223 507.878 334.661 508.346 345.02 507.02C351.395 506.162 357.849 505.304 363.746 502.419C365.26 499.923 364.543 497.35 364.144 494.776C363.905 488.459 364.383 482.143 363.666 475.904C363.666 474.11 363.985 472.316 363.427 470.601C363.427 457.577 363.427 444.554 363.427 431.53C363.427 429.112 363.347 426.617 363.905 424.199C363.905 423.42 364.622 422.874 364.622 422.094C365.26 421.548 365.419 420.768 365.419 419.988C365.897 418.74 366.774 418.818 367.81 419.364C367.969 422.094 369.882 424.433 369.961 427.241C370.519 444.242 370.917 461.242 371.714 478.165C372.113 486.198 372.192 494.23 372.272 502.263C378.328 504.368 384.225 506.084 390.36 507.176C400.56 509.047 410.68 507.41 420.8 506.006C429.007 504.836 434.186 500.157 437.294 492.593C442.474 479.803 444.944 466.311 448.291 452.976C451.558 440.03 452.593 426.695 455.303 413.671C456.02 410.084 456.817 406.341 460.721 404.157C463.032 407.355 462.634 410.708 462.235 414.061C460.801 426.617 459.367 439.251 457.056 451.65C454.347 465.922 451.637 480.115 446.697 493.84C445.9 495.946 445.183 498.13 444.386 500.391C447.414 500.391 450.203 500.313 452.992 500.391C456.896 500.469 456.976 500.469 456.896 496.648C456.737 491.423 456.578 486.12 457.853 481.129C462.395 463.66 473.71 451.728 490.125 444.086C494.507 442.058 499.288 441.122 504.308 439.64C483.112 406.809 472.355 370.467 465.184 333.034ZM360.001 493.606C359.762 499.767 357.052 502.575 350.757 503.043C349.164 503.121 347.57 503.043 345.1 503.043C347.012 501.561 348.447 501.795 349.722 501.639C355.698 500.859 357.531 498.753 357.212 492.827C357.052 488.693 356.176 484.56 355.22 480.505C351.873 465.454 351.793 450.402 354.742 435.273C354.901 434.415 354.981 433.48 355.06 432.544C355.22 431.296 356.017 431.764 356.734 431.998C355.22 449.389 355.22 466.701 359.204 483.858C360.001 487.134 360.08 490.409 360.001 493.606ZM378.089 496.492C377.372 494.23 377.212 491.891 377.372 489.551C378.886 471.303 379.444 453.054 379.125 434.727C379.125 433.87 378.966 432.856 380.081 432.154C381.755 439.173 381.755 446.347 382.073 453.366C382.551 464.83 381.914 476.216 380.32 487.523C380.001 489.863 380.001 492.203 380.24 494.542C380.719 499.377 381.754 500.469 386.775 501.327C387.253 501.405 387.89 501.249 388.05 501.951C383.268 503.121 379.603 501.171 378.089 496.492Z" fill="#801C51"/>
<path d="M356.815 432.077C356.32 432.27 355.826 432.56 355.331 432.753C355.331 431.402 355.048 429.857 356.532 428.989C357.522 429.857 357.31 430.919 356.815 432.077Z" fill="#801C51"/>
</svg>
