<svg width="64" height="48" viewBox="0 0 64 48" fill="none" xmlns="http://www.w3.org/2000/svg">
<path d="M23.1564 11.7425C23.7811 11.0978 24.4397 10.4948 25.2138 10.0304C25.7773 9.69076 26.3409 9.5452 26.9995 9.5452C27.7397 9.5452 28.4594 9.33725 29.1588 9.06693C29.9668 8.75501 30.7748 8.4431 31.5149 7.97869C31.5353 7.96483 31.5624 7.96483 31.576 7.94403C31.9155 7.54201 32.3026 7.70836 32.676 7.86085C33.3686 8.13118 33.8032 8.6857 34.1427 9.32339C34.421 9.85018 34.6791 10.3908 34.8352 10.9661C35.0933 11.9157 34.9235 12.796 34.3939 13.6625C34.2445 13.2882 34.2988 12.9555 34.3735 12.6158C34.4754 12.1514 34.5636 11.687 34.5433 11.2087C34.5433 11.1394 34.5568 11.0701 34.4957 10.9869C34.3124 10.9384 34.1902 10.9869 34.1087 11.2087C33.8099 11.9989 33.4433 12.7475 32.9476 13.4268C32.513 14.0229 32.0106 14.5358 31.4334 15.0141C31.3859 14.8547 31.4878 14.7646 31.5285 14.6537C31.8273 13.7249 32.126 12.796 32.5742 11.9227C32.676 11.7217 32.6556 11.4999 32.6896 11.285C32.7032 11.2018 32.7167 11.084 32.5945 11.0562C32.4859 11.0355 32.3705 11.0077 32.289 11.1325C32.1803 11.2919 32.0853 11.4583 31.997 11.6316C31.4538 12.699 30.6729 13.5308 29.6341 14.1061C28.4934 14.7438 27.2304 14.9794 25.981 15.2567C25.9199 15.2706 25.8452 15.2914 25.8045 15.229C25.9878 15.028 26.1576 14.8131 26.3477 14.6259C27.1897 13.7664 27.9162 12.8168 28.4119 11.7078C28.4798 11.5484 28.6699 11.3196 28.4662 11.1949C28.2829 11.084 28.181 11.3612 28.0724 11.4929C27.5292 12.1653 27.0946 12.9277 26.5175 13.5793C25.4786 14.7646 24.1749 15.534 22.749 16.1093C22.0293 16.4004 21.2688 16.4766 20.5083 16.5529C20.3114 16.5737 20.1077 16.5182 19.8564 16.4974C21.0447 15.7211 22.0836 14.8131 23.2786 14.1269C23.7268 13.8704 24.1206 13.5308 24.4261 13.0802C23.2243 13.3159 22.1718 13.8843 21.1533 14.522C21.0922 14.515 21.0583 14.4804 21.0651 14.4111C21.649 13.9259 22.1718 13.3714 22.7897 12.9277C23.4144 12.4841 24.073 12.089 24.7113 11.6662C24.9218 11.5276 25.1323 11.3751 25.2477 11.084C24.4805 11.0632 23.8558 11.3543 23.265 11.7355C23.2107 11.7702 23.1836 11.7633 23.1564 11.7425Z" fill="#FF37A1"/>
<path d="M16.4799 45.477C16.0539 45.0412 15.8753 44.4809 15.731 43.9205C15.36 42.447 15.7379 41.1118 16.6586 39.9496C17.2907 39.1471 18.4312 38.6974 19.5443 39.1471C20.7673 39.6452 21.7567 40.3646 22.327 41.596C22.7805 42.5715 22.7324 43.5538 22.2995 44.5224C22.1346 44.889 21.9697 45.2557 21.6743 45.5462C21.5918 45.6638 21.4613 45.6569 21.3445 45.6569C19.9154 45.6569 18.4793 45.6638 17.0502 45.65C16.8578 45.65 16.6311 45.6708 16.4799 45.477Z" fill="#FF37A1"/>
<path d="M40.7016 45.5477C40.3258 44.8935 40.111 44.1774 40.2452 43.4338C40.5942 41.4782 41.8625 40.4316 43.6408 39.8739C44.5535 39.5916 45.6943 40.2182 46.2043 40.9411C46.8351 41.8363 47.1505 42.8416 47.0901 43.9571C47.0632 44.5148 46.9424 45.0588 46.6606 45.5546C46.5801 45.6716 46.4526 45.6578 46.3385 45.6578C44.5669 45.6578 42.7953 45.6578 41.0304 45.6578C40.9029 45.651 40.7888 45.651 40.7016 45.5477Z" fill="#FF37A1"/>
<path d="M63.9999 47.1C60.4111 47.1 56.8837 47.1 53.3836 47.1C53.2471 47.2175 53.3358 47.3678 53.1994 47.4985C52.674 47.4985 52.1077 47.4985 51.5414 47.4985C51.4049 47.4985 51.364 47.4201 51.364 47.309C51.364 46.6035 51.364 45.8914 51.364 45.1859C51.364 45.0487 51.4322 44.9899 51.5755 44.9899C52.0736 44.9899 52.5785 44.9964 53.0765 44.9899C53.3631 44.9833 53.2471 45.2185 53.329 45.3361C53.445 45.4145 53.5746 45.3818 53.6974 45.3818C56.9587 45.3818 60.2201 45.3884 63.4814 45.3884C63.536 45.3884 63.5974 45.3884 63.652 45.3884C63.9794 45.3949 63.9931 45.4014 63.9999 45.7215C63.9999 46.1592 63.9999 46.6035 63.9999 47.1Z" fill="#FF37A1"/>
<path d="M12.6291 47.4985C12.0145 47.4985 11.4273 47.4985 10.8538 47.4985C10.7309 47.3989 10.8196 47.2463 10.7377 47.1467C10.6148 47.0737 10.4782 47.1069 10.3417 47.1069C7.0778 47.1069 3.81396 47.1069 0.556942 47.1069C-0.105387 47.1069 0.0106908 47.1467 0.00386265 46.5494C-0.00296548 46.1777 0.00386265 45.7994 0.00386265 45.3747C3.59546 45.3747 7.16657 45.3747 10.6899 45.3747C10.8264 45.2287 10.7445 45.1026 10.8401 44.9897C11.4205 44.9897 12.0145 44.9897 12.6359 44.9897C12.6291 45.8127 12.6291 46.6357 12.6291 47.4985Z" fill="#FF37A1"/>
<path d="M23.1384 10.6481C22.8287 11.0105 22.5465 11.331 22.2574 11.6655C21.8789 11.2195 21.5623 10.7875 21.1906 10.3972C20.9704 10.1603 20.7157 9.95821 20.468 9.75612C20.2615 9.58887 20.0481 9.55403 19.7935 9.60281C19.7315 9.84671 19.7797 10.0488 19.9174 10.237C20.2546 10.7039 20.5506 11.1986 20.8327 11.7004C20.9842 11.9791 21.225 12.1812 21.4522 12.446C20.9566 13.0523 20.7226 13.8467 20.0688 14.3833C19.3048 13.8467 18.6991 13.1917 18.3963 12.2579C18.0453 11.1708 18.2518 10.1324 18.6165 9.10804C18.8506 8.45996 19.174 7.86762 19.6489 7.36588C19.7659 7.24044 19.8967 7.12894 20.0757 7.02441C21.1769 8.16727 22.0441 9.54009 23.1384 10.6481Z" fill="#FF37A1"/>
<path d="M21.6224 45.7637C22.4599 45.7102 23.2974 45.7503 24.1349 45.7503C24.4388 45.7503 24.736 45.7236 25.0399 45.7771C25.0872 45.7771 25.1277 45.7771 25.175 45.7771C25.3979 45.757 25.6275 45.7036 25.8504 45.7771C25.9787 46.0176 25.9112 46.2782 25.9044 46.5321C25.9044 46.6992 25.7626 46.7125 25.6343 46.7125C25.3168 46.7125 25.0061 46.7125 24.6887 46.7125C23.5743 46.7125 22.4599 46.7259 21.3455 46.7058C20.3662 46.6925 19.4004 46.9063 18.421 46.7994C16.8744 46.6323 15.3277 46.7526 13.7811 46.7125C13.6325 46.7058 13.4906 46.6992 13.3488 46.7593C13.3218 46.7593 13.3015 46.766 13.2745 46.766C13.0111 46.5321 13.1935 46.2314 13.1462 45.9575C13.1259 45.8506 13.1462 45.7303 13.2813 45.6902C13.6527 45.7704 14.0377 45.7169 14.4092 45.7303C14.9563 45.7503 15.4966 45.7102 16.0436 45.7704C17.7389 45.5632 19.4476 45.7169 21.1429 45.6702C21.3252 45.6702 21.4873 45.6434 21.6224 45.7637Z" fill="#FF37A1"/>
<path d="M47.1596 45.7628C48.0911 45.6935 49.0157 45.742 49.9472 45.7351C50.228 45.7351 50.5157 45.6865 50.7897 45.7698C50.8924 46.075 50.9061 46.3802 50.7897 46.6785C50.7349 46.7271 50.6595 46.7202 50.5979 46.7202C49.4541 46.7202 48.3034 46.7202 47.1596 46.7132C47.0911 46.7132 47.0226 46.6924 46.961 46.6855C46.5843 46.5814 46.2144 46.5606 45.8514 46.7618C45.7418 46.8242 45.6117 46.8242 45.4884 46.8242C44.2829 46.8312 43.0843 46.8312 41.8789 46.8242C41.694 46.8242 41.5159 46.7895 41.3584 46.6994C41.1255 46.7132 40.8858 46.7271 40.6529 46.6924C39.7693 46.6647 38.8789 46.5814 37.9954 46.6855C37.8858 46.7063 37.7831 46.7202 37.6735 46.741C37.242 46.7202 37.4886 46.3802 37.4612 46.1999C37.4406 46.0403 37.3173 45.7628 37.6529 45.7212C37.6872 45.7143 37.7146 45.742 37.7488 45.7559C37.8516 45.7282 37.9612 45.7282 38.0639 45.7628C38.8378 45.8114 39.6187 45.8322 40.3926 45.7628C40.4748 45.7282 40.557 45.7282 40.6392 45.7559C40.7488 45.6518 40.8858 45.6588 41.0159 45.6588C42.7967 45.6796 44.5775 45.6518 46.3651 45.6657C46.6254 45.6657 46.8719 45.8461 47.1596 45.7628Z" fill="#FF37A1"/>
<path d="M30.9627 5.51904C31.3123 5.79695 31.44 6.19186 31.5005 6.6014C31.5476 6.90125 31.3526 7.12796 31.1442 7.29616C30.7072 7.66183 30.1896 7.88123 29.6921 8.10794C28.9459 8.44435 28.1795 8.7515 27.3794 8.94896C27.2584 8.97821 27.1374 8.98553 27.0164 9.01478C26.4584 9.12448 26.1088 8.67106 26.3172 8.09331C26.4046 7.85197 26.5324 7.65451 26.7878 7.55944C27.5946 7.25229 28.3811 6.88662 29.1677 6.50633C29.7728 6.2138 30.4114 5.98709 30.9627 5.51904Z" fill="#FF37A1"/>
<path d="M36.9194 45.7007C36.9747 46.8376 36.4149 47.4286 35.6408 47.6604C34.3899 48.0344 33.1942 47.7652 32.04 47.1817C31.9225 47.1219 31.8672 47.0471 31.8396 46.9124C31.805 46.703 31.7843 46.4935 31.7843 46.2841C31.7774 45.9924 31.7497 45.7156 31.5078 45.4912C33.2979 46.0672 35.1017 46.1046 36.9194 45.7007Z" fill="#FF37A1"/>
<path d="M31.3435 45.6587C31.2305 46.0092 31.2305 46.3057 31.1906 46.6023C31.1507 46.9056 31.031 47.1145 30.7251 47.2224C29.7808 47.5594 28.8232 47.8088 27.8191 47.5729C26.9878 47.3774 26.4226 46.8921 26.3029 45.989C26.2962 45.9216 26.2763 45.8609 26.2563 45.7531C27.9521 46.1709 29.6212 46.1777 31.3435 45.6587Z" fill="#FF37A1"/>
<path d="M30.1491 3.01025C30.5045 3.53302 30.7344 4.08331 30.6787 4.70926C30.6508 4.99128 30.4278 5.177 30.177 5.32145C29.717 5.58971 29.2083 5.74792 28.7275 5.96115C28.184 6.19503 27.6265 6.40138 27.076 6.62837C26.9784 6.66965 26.8948 6.73155 26.7624 6.64901C26.7066 6.07809 26.8251 5.50717 27.0132 4.95689C27.1108 4.67486 27.4104 4.60608 27.6543 4.53729C28.4975 4.28966 29.1874 3.80817 29.8146 3.22349C29.8912 3.14783 29.9749 3.06528 30.1491 3.01025Z" fill="#FF37A1"/>
<path d="M41.354 46.7364C41.4834 46.6811 41.6197 46.695 41.7559 46.695C43.0503 46.695 44.3447 46.695 45.6391 46.695C45.823 46.695 45.9865 46.6742 46.1569 46.5707C46.443 46.398 46.6951 46.5499 46.9335 46.7226C46.3272 46.6397 45.8503 46.8193 45.3939 47.2681C44.9783 47.6686 44.4265 47.9172 43.8202 47.9863C43.4795 48.0277 43.1661 47.9724 42.8596 47.8481C42.3214 47.6203 41.79 47.3648 41.4698 46.8193C41.4426 46.7778 41.3949 46.764 41.354 46.7364Z" fill="#FF37A1"/>
<path d="M27.4573 3.84669C27.1092 3.48903 27.2662 3.10217 27.3481 2.73721C27.4437 2.31385 27.669 1.94159 27.8465 1.54744C28.0581 1.07299 28.2287 0.576639 28.3175 0C28.5701 0.226276 28.7134 0.47445 28.8431 0.737222C29.0343 1.12408 29.1708 1.53284 29.321 1.94159C29.4371 2.24086 29.3551 2.43794 29.1572 2.64232C28.6725 3.16056 28.099 3.54012 27.4573 3.84669Z" fill="#FF37A1"/>
<path d="M13.2922 46.7957C13.428 46.6307 13.6249 46.6835 13.7946 46.6835C17.596 46.6835 21.4041 46.6835 25.2055 46.6835C25.8979 46.6835 25.8368 46.7363 25.8436 46.0566C25.8436 45.9775 25.8436 45.9049 25.8436 45.8257C26.0065 46.116 25.8775 46.413 25.9115 46.6835C25.7961 46.7825 25.6875 46.7561 25.5924 46.7561C23.9633 46.7561 22.3341 46.7561 20.7049 46.7495C20.4606 46.7495 20.2501 46.8023 20.0261 46.9145C19.3609 47.251 18.6821 47.251 18.0236 46.8881C17.8675 46.8023 17.7181 46.7561 17.5484 46.7561C16.2247 46.7561 14.901 46.7627 13.5773 46.7627C13.4959 46.7627 13.3941 46.7825 13.2922 46.7957Z" fill="#FF37A1"/>
<path d="M47.0975 45.7112C46.903 45.8105 46.7151 45.8885 46.5004 45.7537C46.3864 45.6757 46.2388 45.7112 46.1046 45.7112C44.461 45.7112 42.8107 45.7112 41.1671 45.7112C41.0128 45.7112 40.8585 45.7041 40.6975 45.697C40.8183 45.6331 40.7445 45.5622 40.7109 45.4912C42.6967 45.4912 44.6824 45.4912 46.6749 45.4912C46.648 45.5905 46.648 45.6757 46.7755 45.6899C46.8761 45.697 46.9835 45.7041 47.0975 45.7112Z" fill="#FF37A1"/>
<path d="M21.6615 45.7451C20.2243 45.7451 18.7803 45.7516 17.343 45.7516C17.0651 45.7516 16.7803 45.7386 16.5024 45.8037C16.36 45.8363 16.2108 45.8428 16.082 45.7516C16.2244 45.6996 16.3871 45.7712 16.5159 45.7061C16.5769 45.6214 16.5024 45.5628 16.4956 45.4912C18.204 45.6279 19.9124 45.5303 21.6276 45.5498C21.5869 45.6279 21.5598 45.6996 21.6615 45.7451Z" fill="#FF37A1"/>
<path d="M40.3692 45.8257C39.9638 45.9522 39.5516 46.0254 39.1259 45.9788C38.7745 45.9389 38.4096 45.9721 38.0718 45.8257C38.8353 45.8257 39.6057 45.8257 40.3692 45.8257Z" fill="#FF37A1"/>
<path d="M38.0718 46.64C38.4295 46.5049 38.8075 46.4697 39.1787 46.5108C39.5567 46.5519 39.9347 46.5519 40.3194 46.5578C40.4544 46.5578 40.5894 46.546 40.6974 46.64C40.2992 46.6458 39.901 46.6576 39.5095 46.6517C39.0235 46.6517 38.5443 46.6811 38.0718 46.64Z" fill="#FF37A1"/>
<path d="M37.7437 45.7292C37.6876 45.751 37.6174 45.751 37.5823 45.7872C37.4278 45.954 37.484 46.585 37.6665 46.7663C37.5331 46.8606 37.4278 46.8679 37.4208 46.6575C37.4138 46.4037 37.4138 46.1499 37.4208 45.9033C37.4348 45.6204 37.4559 45.6132 37.7437 45.7292Z" fill="#FF37A1"/>
<path d="M13.2932 45.6724C13.164 46.0578 13.164 46.436 13.2851 46.8214C13.1802 46.8499 13.1318 46.8 13.1318 46.7143C13.1318 46.3932 13.1237 46.0792 13.1318 45.7581C13.1318 45.6724 13.1883 45.6367 13.2932 45.6724Z" fill="#FF37A1"/>
<path d="M50.7075 46.6619C50.7075 46.381 50.7075 46.1066 50.7075 45.8257C50.9199 46.1066 50.9351 46.381 50.7075 46.6619Z" fill="#FF37A1"/>
<path d="M31.3486 37.2964C31.3486 37.1882 31.3165 37.0701 31.418 36.9619C31.5515 37.0406 31.4821 37.1587 31.5088 37.2521C31.4393 37.2079 31.3913 37.2521 31.3486 37.2964Z" fill="#FF37A1"/>
<path d="M31.3378 42.3138C31.1183 42.1514 31.1521 41.9817 31.2872 41.812C31.3885 41.9743 31.321 42.144 31.3378 42.3138Z" fill="#FF37A1"/>
<path d="M40.8191 20.7C40.5262 19.1093 39.9471 17.6155 39.2114 16.1839C38.646 15.0773 37.958 14.0537 37.2155 13.0647C37.0452 12.8434 36.943 12.6221 37.0657 12.3386C37.3994 12.2694 37.7196 12.3731 38.0398 12.4285C38.3327 12.4769 38.612 12.4354 38.8572 12.3109C39.8586 11.7784 40.3763 10.9138 40.4444 9.77271C40.4785 9.20559 40.424 8.65231 40.3422 8.09211C40.1583 6.81956 39.9267 5.56085 39.4158 4.37129C39.3 4.10157 39.1638 3.83876 38.8777 3.67969C38.2441 4.13615 37.8695 4.77934 37.5221 5.42944C36.9703 6.45993 36.5411 7.54574 36.0915 8.63156C35.8872 9.13643 35.785 9.68971 35.4444 10.1393C35.3899 10.2084 35.4308 10.2914 35.4444 10.3675C35.5738 11.1697 35.6896 11.972 35.5193 12.795C35.3695 13.5074 35.0629 14.1367 34.6133 14.69C34.3885 14.9597 34.0411 14.8767 33.9321 14.5448C33.8844 14.3926 33.8708 14.2335 33.8708 14.0676C33.8708 13.8601 33.8913 13.6457 33.8436 13.4244C33.8027 13.452 33.7823 13.4589 33.7686 13.4728C33.1828 14.4964 32.3585 15.2779 31.3776 15.9211C31.1051 16.1009 30.8531 16.0732 30.5602 16.0525C30.4716 15.3124 30.9757 14.7522 31.1188 14.033C31.0302 14.0883 30.9893 14.1091 30.9553 14.1436C30.4852 14.5863 29.9403 14.9113 29.3408 15.1326C28.6119 15.4023 27.8626 15.6098 27.086 15.7412C26.3231 15.8657 25.5738 16.0179 24.7972 16.0248C24.7086 16.0248 24.6473 16.0732 24.5792 16.1009C23.9593 16.3775 23.3735 16.7302 22.7127 16.8893C22.4334 16.9515 22.3449 17.1244 22.3312 17.3734C22.2836 18.7774 21.9702 20.1467 21.759 21.5299C21.6296 22.3668 21.6432 23.2105 21.7182 24.0405C21.8272 25.2715 22.2563 26.4057 22.8558 27.4777C23.3394 28.3492 23.9253 29.1376 24.6814 29.7808C25.4988 30.4793 26.4185 31.0187 27.4335 31.3853C28.4144 31.7449 29.4226 32.0008 30.4648 32.0769C31.5752 32.153 32.6787 32.1115 33.7754 31.8832C34.552 31.7173 35.315 31.4821 36.0302 31.1363C37.4676 30.4378 38.6529 29.4211 39.518 28.0518C40.3014 26.8069 40.751 25.4306 40.9485 23.9713C41.0984 22.8509 41.0166 21.772 40.8191 20.7ZM39.2046 6.86106C38.5575 8.29959 38.3054 9.82803 38.1556 11.3911C37.4744 9.93869 37.9921 7.71173 39.2046 6.86106Z" fill="#FF37A1"/>
<path d="M28.4475 17.5834C27.66 17.5765 27.2731 17.8335 27.2052 18.4031C27.1373 18.9588 27.4767 19.445 28.0062 19.5492C28.5561 19.6604 28.9499 19.3061 29.201 18.4864C29.7645 19.3825 29.7306 21.258 28.2574 22.2583C27.1848 22.9877 25.2772 23.0849 24.1775 21.2302C23.2678 19.6951 24.1367 17.9238 25.155 17.3055C26.3906 16.5623 27.9995 16.9235 28.4475 17.5834Z" fill="#0E0E0E"/>
<path d="M37.2341 17.0542C36.3236 17.1285 35.9938 17.3379 35.9674 17.8579C35.9344 18.4523 36.0861 18.7698 36.6733 18.9521C36.9834 19.0467 37.2737 18.9521 37.531 18.7293C37.7817 18.5131 37.7883 18.2024 37.8872 17.9052C38.4414 18.7698 38.4018 20.3908 37.2803 21.3702C36.0993 22.3969 34.4302 22.2888 33.3944 21.1473C32.3784 20.0261 32.418 18.297 33.4736 17.2163C34.4566 16.1896 36.2049 16.1018 37.2341 17.0542Z" fill="#0E0E0E"/>
<path d="M34.7297 24.7528C34.7063 23.8671 34.7472 23.9596 34.1333 23.6953C34.3672 23.5102 34.6654 23.5565 34.8349 23.801C35.0279 24.0852 34.9811 24.5082 34.7297 24.7528Z" fill="#0E0E0E"/>
<path d="M28.2256 24.0684C27.9023 24.1494 27.5712 24.0887 27.4557 24.3856C27.3633 24.6082 27.4557 24.8511 27.3941 25.0872C27.0554 24.8848 26.9784 24.4868 27.2094 24.1899C27.448 23.8795 27.8022 23.8256 28.2256 24.0684Z" fill="#0E0E0E"/>
<path d="M39.962 29.603C39.8936 29.6169 39.8799 29.6169 39.873 29.6238C39.7635 29.7417 39.654 29.8526 39.5445 29.9704C38.7367 30.8785 37.7852 31.5856 36.6968 32.1194C35.4852 32.7155 34.2051 33.0413 32.8703 33.1245C31.2206 33.2354 29.5777 33.2146 27.9622 32.7918C26.6753 32.4521 25.491 31.8975 24.4163 31.1003C24.074 30.8439 23.7523 30.5666 23.3964 30.2824C23.3621 30.4418 23.3279 30.5666 23.3005 30.6914C23.0062 32.0847 22.4928 33.381 21.6782 34.5456C21.0689 35.419 20.4255 36.2716 19.8026 37.1312C19.5493 37.4778 19.2755 37.8105 19.0359 38.2126C20.5282 38.379 21.7398 39.0167 22.6571 40.2021C23.6086 41.4291 23.6839 42.8363 23.4717 44.3336C23.9371 44.2989 24.3684 44.2504 24.8613 44.3197C24.6696 43.8899 24.5464 43.5225 24.4368 43.1482C24.1767 42.2678 23.9782 41.3736 23.7865 40.4724C23.5401 39.3356 23.3074 38.1987 23.2731 37.0342C23.2663 36.8609 23.2458 36.6598 23.3621 36.4588C23.4032 36.5143 23.4306 36.5351 23.4443 36.5697C23.6496 37.1659 23.8755 37.7482 23.9987 38.372C24.3273 40.0496 24.7996 41.6925 25.3815 43.3007C25.669 44.0979 26.1756 44.6178 26.9765 44.8674C27.8527 45.1446 28.7494 45.1862 29.6393 45.0684C30.1869 44.9921 30.7414 44.9159 31.2479 44.6594C31.378 44.4376 31.3164 44.2088 31.2822 43.9801C31.2616 43.4186 31.3027 42.8571 31.2411 42.3025C31.2411 42.1431 31.2685 41.9836 31.2206 41.8311C31.2206 40.6735 31.2206 39.5158 31.2206 38.3582C31.2206 38.1433 31.2137 37.9215 31.2616 37.7066C31.2616 37.6372 31.3232 37.5887 31.3232 37.5194C31.378 37.4709 31.3917 37.4016 31.3917 37.3322C31.4328 37.2213 31.5081 37.2283 31.597 37.2768C31.6107 37.5194 31.775 37.7274 31.7819 37.9769C31.8298 39.4881 31.864 40.9993 31.9325 42.5035C31.9667 43.2175 31.9735 43.9315 31.9804 44.6455C32.5006 44.8327 33.0072 44.9852 33.5343 45.0822C34.4105 45.2486 35.2798 45.103 36.1492 44.9783C36.8543 44.8743 37.2992 44.4584 37.5662 43.786C38.0111 42.6491 38.2233 41.4499 38.5108 40.2645C38.7915 39.1138 38.8805 37.9284 39.1132 36.7707C39.1748 36.4519 39.2433 36.1191 39.5787 35.925C39.7772 36.2093 39.743 36.5073 39.7087 36.8054C39.5855 37.9215 39.4623 39.0444 39.2638 40.1466C39.0311 41.4152 38.7983 42.6768 38.3739 43.8969C38.3055 44.084 38.2439 44.2781 38.1754 44.4792C38.4355 44.4792 38.6751 44.4722 38.9147 44.4792C39.2501 44.4861 39.257 44.4861 39.2501 44.1464C39.2364 43.682 39.2227 43.2106 39.3323 42.7669C39.7224 41.2142 40.6945 40.1536 42.1046 39.4742C42.4811 39.294 42.8918 39.2108 43.3231 39.0791C41.5022 36.1607 40.5781 32.9304 39.962 29.603ZM30.9262 43.8761C30.9057 44.4237 30.6729 44.6733 30.1321 44.7148C29.9952 44.7218 29.8583 44.7148 29.6461 44.7148C29.8104 44.5831 29.9336 44.6039 30.0432 44.5901C30.5566 44.5208 30.714 44.3336 30.6866 43.8068C30.6729 43.4394 30.5976 43.072 30.5155 42.7115C30.228 41.3736 30.2211 40.0357 30.4744 38.6909C30.4881 38.6147 30.495 38.5315 30.5018 38.4483C30.5155 38.3374 30.5839 38.379 30.6455 38.3998C30.5155 39.9456 30.5155 41.4845 30.8578 43.0096C30.9262 43.3007 30.9331 43.5919 30.9262 43.8761ZM32.4801 44.1326C32.4185 43.9315 32.4048 43.7236 32.4185 43.5156C32.5485 41.8935 32.5965 40.2714 32.5691 38.6424C32.5691 38.5661 32.5554 38.476 32.6512 38.4136C32.795 39.0375 32.795 39.6753 32.8224 40.2991C32.8634 41.3182 32.8087 42.3302 32.6718 43.3354C32.6444 43.5433 32.6444 43.7513 32.6649 43.9593C32.706 44.389 32.795 44.4861 33.2262 44.5623C33.2673 44.5693 33.3221 44.5554 33.3358 44.6178C32.925 44.7218 32.6102 44.5485 32.4801 44.1326Z" fill="#FF37A1"/>
<path d="M30.6525 38.4068C30.61 38.4239 30.5675 38.4497 30.525 38.4668C30.525 38.3467 30.5008 38.2095 30.6282 38.1323C30.7132 38.2095 30.695 38.3039 30.6525 38.4068Z" fill="#FF37A1"/>
</svg>
