<svg width="44" height="56" viewBox="0 0 44 56" fill="none" xmlns="http://www.w3.org/2000/svg">
<path d="M30.698 1.30465L30.6979 1.30454C30.6976 1.30427 30.6973 1.304 30.697 1.30373L30.698 1.30465ZM30.698 1.30465L31.5389 2.11211L32.4285 2.9663M30.698 1.30465L42.6803 12.8099C42.6803 12.8099 42.6803 12.8099 42.6802 12.8099L42.6714 12.8014L42.5744 12.7082L41.3885 11.5696L40.8984 11.099M32.4285 2.9663C32.8437 7.37573 36.44 10.8597 40.8984 11.099M32.4285 2.9663L40.8984 11.099M32.4285 2.9663C32.4285 2.96596 32.4285 2.96562 32.4284 2.96528C33.6074 4.09715 35.2393 5.66416 36.8565 7.21716L40.8869 11.0876L40.8988 11.099C40.8986 11.099 40.8985 11.099 40.8984 11.099M21.8427 49.0849L21.842 49.0842C21.2956 48.5595 21.1598 47.7331 21.5376 47.06L24.2839 42.1569C23.572 41.1286 23.1526 39.8904 23.1526 38.5572C23.1526 34.9237 26.2324 32.0478 29.9219 32.0478C33.6113 32.0478 36.6908 34.9242 36.6908 38.5572C36.6908 39.8904 36.2714 41.1287 35.5595 42.157L38.3054 47.0607C38.3055 47.0608 38.3055 47.0608 38.3055 47.0609C38.682 47.7331 38.5472 48.5589 38.0012 49.0838L38.0006 49.0845C37.4652 49.5982 36.6601 49.7095 36.0065 49.3795C36.0063 49.3794 36.0061 49.3793 36.0059 49.3792L35.0415 48.8926L34.9353 49.8781L21.8427 49.0849ZM21.8427 49.0849C22.3786 49.5985 23.1828 49.709 23.8361 49.3797L23.8365 49.3795L24.8015 48.8926L24.9076 49.8789L24.9076 49.8792C24.971 50.4672 25.3346 50.95 25.8241 51.2005C25.9725 51.2767 26.1313 51.3309 26.2956 51.362L26.2979 51.3625C27.0117 51.4961 27.7621 51.1756 28.1319 50.517L28.1324 50.5162L29.9215 47.3221L31.7103 50.5161L31.7105 50.5164C32.0801 51.1758 32.831 51.496 33.5446 51.3625L33.5479 51.3618C33.7087 51.3312 33.8676 51.2782 34.0186 51.2006L21.8427 49.0849ZM8.97849 1H29.6058L29.6089 1.00005L29.6122 1.00007L29.6165 1.0001L29.6182 1.0001L29.6345 1.00011L29.9245 1.00013C30.1766 1.00013 30.2988 1.03367 30.3711 1.06398C30.3768 1.06636 30.3826 1.06889 30.3885 1.0716V2.11211C30.3885 8.18724 35.3134 13.1121 41.3885 13.1121H42.902C42.9644 13.2301 43 13.3568 43 13.5074V47.4256C43 51.5585 39.464 55 35.0215 55H8.97849C4.53613 55 1 51.5585 1 47.4256V8.57443C1 4.44167 4.53614 1 8.97849 1ZM29.9218 0.000131914C29.9227 0.000131914 29.9236 0.000131914 29.9245 0.000131914C29.9938 0.000131914 30.0599 0.00200929 30.123 0.00579584C30.104 0.25017 30.0183 0.464759 29.9245 0.631411C29.9236 0.632953 29.9228 0.63449 29.9219 0.636023L29.9218 0.000131914ZM33.6088 41.4129L33.1479 41.9437L33.4914 42.5571L36.0772 47.175L34.6525 46.4561L33.3625 45.8053L33.2077 47.2418L33.0401 48.7975L30.7941 44.7871L29.9217 43.2294L29.0491 44.7871L26.8028 48.7974L26.6355 47.242L26.4809 45.8052L25.1908 46.4561L23.7654 47.1752L26.3521 42.5572L26.6956 41.9438L26.2347 41.4129C25.5544 40.6294 25.1526 39.6347 25.1526 38.5572C25.1526 36.1143 27.249 34.0478 29.9219 34.0478C32.5945 34.0478 34.6908 36.1145 34.6908 38.5572C34.6908 39.6348 34.2889 40.6296 33.6088 41.4129ZM36.9081 47.5942L36.9074 47.5939L36.9081 47.5942ZM23.2824 48.0376C23.2822 48.038 23.2819 48.0384 23.2817 48.0389L23.2821 48.0381L23.2824 48.0376Z" stroke="#FF37A1" stroke-width="2"/>
</svg>
