<svg width="74" height="64" viewBox="0 0 74 64" fill="none" xmlns="http://www.w3.org/2000/svg">
<path d="M33.717 9.97039C34.3158 12.4609 34.0739 14.8739 33.2438 16.7523C32.4142 18.6295 31.0272 19.9241 29.3303 20.3481C27.6333 20.7721 25.8164 20.2781 24.2293 19.0048C22.6412 17.7307 21.3323 15.7052 20.7335 13.2147C20.1347 10.7241 20.3766 8.31116 21.2067 6.43274C22.0364 4.55556 23.4233 3.26101 25.1203 2.83698C26.8172 2.41294 28.6342 2.90692 30.2212 4.18023C31.8093 5.45439 33.1183 7.47984 33.717 9.97039Z" stroke="#FF37A1" stroke-width="2"/>
<path d="M40.283 9.97039C39.6842 12.4609 39.9261 14.8739 40.7562 16.7523C41.5858 18.6295 42.9728 19.9241 44.6697 20.3481C46.3667 20.7721 48.1836 20.2781 49.7707 19.0048C51.3588 17.7307 52.6677 15.7052 53.2665 13.2147C53.8653 10.7241 53.6234 8.31116 52.7933 6.43274C51.9636 4.55556 50.5767 3.26101 48.8797 2.83698C47.1828 2.41294 45.3658 2.90692 43.7788 4.18023C42.1907 5.45439 40.8817 7.47984 40.283 9.97039Z" stroke="#FF37A1" stroke-width="2"/>
<path d="M15.8007 19.4724C17.9399 23.125 17.0359 27.3902 14.1947 29.1196C11.3536 30.849 7.24184 29.637 5.10264 25.9844C2.96344 22.3318 3.86747 18.0666 6.70859 16.3372C9.54972 14.6078 13.6615 15.8198 15.8007 19.4724Z" stroke="#FF37A1" stroke-width="2"/>
<path d="M58.1993 19.4724C56.0601 23.125 56.9641 27.3902 59.8053 29.1196C62.6464 30.849 66.7582 29.637 68.8974 25.9844C71.0366 22.3318 70.1325 18.0666 67.2914 16.3372C64.4503 14.6078 60.3385 15.8198 58.1993 19.4724Z" stroke="#FF37A1" stroke-width="2"/>
<path d="M19.4857 35.4276C19.4724 35.1907 19.4657 34.953 19.4656 34.7144M19.4656 34.7144C19.4659 32.5682 20.1982 30.4884 21.5378 28.8286C22.8774 27.1687 24.7417 26.0313 26.8138 25.6097C28.8858 25.1881 31.0377 25.5083 32.9035 26.5159C34.7694 27.5235 36.234 29.1564 37.0484 31.1368C37.8629 29.1564 39.3275 27.5236 41.1933 26.5159C43.0591 25.5083 45.211 25.1881 47.2831 25.6097C49.3551 26.0313 51.2194 27.1687 52.5591 28.8286C53.8987 30.4884 54.6309 32.5682 54.6313 34.7144C54.6313 46.8573 37.0484 56.8573 37.0484 56.8573M19.4656 34.7144C19.4656 46.8573 37.0484 56.8573 37.0484 56.8573M37.0484 56.8573C37.0484 56.8573 30.025 52.8628 24.856 46.8575" stroke="#FF37A1" stroke-width="2" stroke-linecap="round" stroke-linejoin="round"/>
</svg>
