<svg width="52" height="60" viewBox="0 0 52 60" fill="none" xmlns="http://www.w3.org/2000/svg">
<path d="M43.9166 22.8899L43.9173 22.8904C44.1422 23.0757 44.3758 23.2703 44.6062 23.4751C44.6847 23.5446 44.7475 23.6205 44.7831 23.666C44.8871 23.1609 44.9399 22.6506 44.9399 22.1376V9.57919C44.9399 4.91955 40.8238 1 35.6039 1H16.3977C11.1779 1 7.06226 4.91948 7.06226 9.57919V22.1369C7.06226 22.6411 7.11326 23.1431 7.21346 23.6404C7.27366 23.5855 7.33575 23.5295 7.39804 23.4748C7.62971 23.2692 7.86618 23.073 8.09252 22.8868C8.12117 22.8631 8.15268 22.8366 8.18612 22.8086C8.27515 22.734 8.37787 22.6478 8.47688 22.5693L8.47744 22.5688C8.74186 22.3594 9.00882 22.1619 9.26652 21.973C9.29303 21.9534 9.32733 21.9275 9.36553 21.8987C9.44281 21.8405 9.53607 21.7701 9.61316 21.7149L9.61711 21.712C9.92092 21.4965 10.2273 21.2932 10.5297 21.0974M43.9166 22.8899L19.3011 17.3436C19.2495 17.3559 19.1958 17.3685 19.1405 17.3815C18.9627 17.4233 18.769 17.4689 18.5809 17.5186L18.5805 17.5187C18.4564 17.5515 18.3174 17.5929 18.2007 17.6277C18.1492 17.643 18.102 17.6571 18.0623 17.6686C18.0093 17.6838 17.953 17.6997 17.8946 17.7163C17.7333 17.7619 17.5555 17.8122 17.3855 17.8653L17.3834 17.866C17.2742 17.9004 17.1401 17.9464 17.0258 17.9856C16.9627 18.0073 16.9057 18.0268 16.862 18.0413L16.8601 18.0419C16.8127 18.0578 16.7616 18.0745 16.7083 18.092C16.5699 18.1375 16.4158 18.1881 16.2667 18.2413C16.2471 18.247 16.2338 18.2514 16.2296 18.2528L16.2284 18.2532C16.1985 18.2628 16.1681 18.2734 16.1417 18.283C16.0877 18.3024 16.0227 18.3271 15.9547 18.3534C15.8175 18.4065 15.6462 18.4748 15.4814 18.5411C15.3516 18.5933 15.223 18.6454 15.1154 18.6889C15.0859 18.7009 15.058 18.7122 15.0321 18.7227C15.0001 18.7356 14.9714 18.7472 14.9464 18.7573L14.9327 18.7591L14.8076 18.8124C14.6879 18.8635 14.5473 18.9287 14.428 18.984C14.3706 19.0106 14.3182 19.0349 14.2754 19.0542C14.2503 19.0652 14.2286 19.0755 14.2198 19.0797C13.8409 19.2513 13.4625 19.4305 13.0864 19.6215L13.5393 20.5131M43.9166 22.8899C43.8879 22.8663 43.8553 22.8391 43.8201 22.8098C43.729 22.7339 43.6208 22.6437 43.5176 22.5632C43.2666 22.3639 43.0092 22.1738 42.77 21.9972L42.7648 21.9934L42.7622 21.9914M43.9166 22.8899L42.7622 21.9914M10.5297 21.0974C10.8941 20.8599 11.2624 20.6337 11.6385 20.4146L11.6432 20.4118L11.6433 20.4119C11.6744 20.394 11.7058 20.3748 11.7512 20.3471L11.7543 20.3452C11.797 20.3192 11.853 20.2851 11.9133 20.2509C12.2584 20.0537 12.6077 19.8699 12.946 19.695L12.9531 19.6914L12.9531 19.6914C12.9645 19.6856 12.9771 19.679 13.0011 19.6661L13.003 19.6651C13.024 19.6539 13.0548 19.6375 13.0881 19.6207L13.5393 20.5131M10.5297 21.0974C10.5301 21.0971 10.5305 21.0969 10.5309 21.0966L11.0745 21.936L10.5285 21.0982C10.5289 21.0979 10.5293 21.0976 10.5297 21.0974ZM13.5393 20.5131C13.9018 20.329 14.2689 20.1551 14.6403 19.987L12.267 21.2039C12.3135 21.1755 12.3599 21.1472 12.4078 21.1201C12.7346 20.9332 13.0695 20.7569 13.4052 20.5834C13.4271 20.5723 13.4487 20.5607 13.4705 20.5491C13.4931 20.5371 13.5158 20.525 13.5393 20.5131ZM42.7622 21.9914C42.734 21.9708 42.6887 21.9368 42.6373 21.8982C42.5536 21.8355 42.4539 21.7606 42.3858 21.7116L42.3858 21.7115M42.7622 21.9914L42.3858 21.7115M42.3858 21.7115L42.3794 21.707M42.3858 21.7115L42.3794 21.707M42.3794 21.707C42.1542 21.5475 41.9225 21.3947 41.7079 21.2531C41.6656 21.2253 41.624 21.1979 41.5833 21.1709L41.5799 21.1686M42.3794 21.707L41.5799 21.1686M41.5799 21.1686C41.1514 20.8877 40.7153 20.618 40.2721 20.3598C40.2678 20.3573 40.2583 20.3516 40.2459 20.3441C40.2061 20.3202 40.1354 20.2777 40.1011 20.258L40.0989 20.2567M41.5799 21.1686L40.0989 20.2567M40.0989 20.2567C39.7412 20.0516 39.3807 19.8614 39.0284 19.6798L39.0204 19.6756M40.0989 20.2567L39.0204 19.6756M39.0204 19.6756L39.0123 19.6716L39.0204 19.6756ZM37.7607 19.0685C38.1489 19.244 38.5389 19.4283 38.9245 19.6254L37.7607 19.0685ZM37.7607 19.0685C37.7537 19.0653 37.7473 19.0625 37.7419 19.0601L37.7337 19.0567C37.6916 19.0376 37.64 19.0136 37.5834 18.9873C37.4625 18.9312 37.3189 18.8645 37.1965 18.8123L37.0523 18.7508L37.0316 18.7489C37.0109 18.7407 36.9876 18.7313 36.9619 18.721C36.8837 18.6895 36.7905 18.6518 36.6899 18.6109C36.6336 18.5881 36.5749 18.5643 36.5153 18.5402C36.3518 18.474 36.1821 18.4057 36.0471 18.3527C35.9802 18.3265 35.9164 18.3019 35.8639 18.2827C35.8382 18.2732 35.8086 18.2627 35.7795 18.2531L35.7792 18.253C35.7766 18.2521 35.7619 18.247 35.7391 18.2403C35.5881 18.1862 35.4291 18.1339 35.287 18.0873C35.2236 18.0664 35.1635 18.0467 35.1091 18.0284L35.1061 18.0274C35.0671 18.0145 35.0165 17.9971 34.9604 17.9778C34.8533 17.941 34.7261 17.8973 34.6215 17.8644C34.6216 17.8644 34.6218 17.8645 34.6219 17.8645L37.7607 19.0685ZM33.4279 17.5186C33.1757 17.4512 32.919 17.3912 32.6824 17.3359C32.6479 17.3278 32.6138 17.3199 32.5802 17.312C32.5584 17.3068 32.5251 17.2986 32.4861 17.2889C32.4041 17.2687 32.297 17.2422 32.2189 17.225L32.2178 17.2248C31.9218 17.1601 31.6275 17.1052 31.3487 17.0533C31.3349 17.0507 31.3054 17.0447 31.2682 17.0372C31.1854 17.0205 31.065 16.9962 30.9972 16.9843C30.9972 16.9843 30.9972 16.9843 30.9972 16.9844L33.4279 17.5186ZM33.4279 17.5186C33.5144 17.5417 33.6388 17.5785 33.735 17.607C33.784 17.6215 33.8257 17.6338 33.8513 17.6411L33.4279 17.5186ZM27.5194 16.5987C27.5448 16.5999 27.5685 16.6016 27.5804 16.6024L27.604 16.6039L27.6149 16.6043L27.6149 16.6044C27.6495 16.6063 27.6845 16.6082 27.7199 16.6102C27.9722 16.624 28.2447 16.6389 28.5169 16.6626C28.5646 16.6665 28.6083 16.6715 28.6371 16.6749C28.6719 16.6789 28.6872 16.6807 28.7018 16.6821L28.7054 16.6824C28.7284 16.6846 28.7483 16.687 28.7608 16.6885L28.773 16.6899C28.8012 16.6924 28.8253 16.6951 28.8418 16.697C28.8663 16.6999 28.8719 16.7006 28.8803 16.7015C28.8808 16.7015 28.8813 16.7016 28.8818 16.7016L28.9115 16.7045L28.9116 16.7045L28.9191 16.7052C29.1863 16.7313 29.4729 16.7592 29.7593 16.7964C29.8473 16.8074 29.9709 16.8271 30.0578 16.8409C30.0943 16.8467 30.1243 16.8515 30.1425 16.8542L27.5222 16.5988C27.5213 16.5988 27.5203 16.5987 27.5194 16.5987ZM27.5194 16.5987C27.5023 16.5977 27.4837 16.5964 27.4538 16.5942L27.4536 16.5942C27.4256 16.5921 27.3862 16.5893 27.3447 16.5872L27.3445 16.5872C27.3443 16.5872 27.3435 16.5871 27.3415 16.587L27.3294 16.5862C27.3192 16.5854 27.2978 16.5839 27.2743 16.5826L27.2743 16.5826L27.265 16.5822C26.845 16.5637 26.4241 16.5551 26.0032 16.5551H26.0019C25.5803 16.5556 25.16 16.564 24.739 16.5827L24.739 16.5826L24.7266 16.5833C24.705 16.5845 24.6845 16.586 24.6748 16.5867L24.6567 16.588M27.5194 16.5987L24.6567 16.588M24.6567 16.588C24.6093 16.5904 24.5496 16.5946 24.5089 16.5975C24.4968 16.5984 24.4864 16.5991 24.4785 16.5996C24.4258 16.6025 24.371 16.6063 24.3275 16.6094C24.3227 16.6098 24.3181 16.6101 24.3137 16.6104L24.2887 16.6117L24.2886 16.6117L24.2812 16.6121C24.0299 16.6256 23.7595 16.6401 23.4878 16.6637C23.44 16.6676 23.3964 16.6725 23.3672 16.6759C23.3323 16.6798 23.316 16.6817 23.2998 16.6832L23.2998 16.6832L23.2902 16.6841C23.2808 16.6851 23.2719 16.686 23.264 16.6869C23.2582 16.6875 23.253 16.6881 23.2485 16.6886L23.2279 16.6909C23.1818 16.6955 23.1134 16.7031 23.0641 16.7086C23.0395 16.7114 23.0196 16.7136 23.0096 16.7146L24.6567 16.588ZM34.9936 19.0435C34.9259 19.0213 34.8582 18.9991 34.7907 18.9764L36.8043 19.7322C36.7909 19.731 36.5717 19.6421 36.3124 19.537C35.9409 19.3863 35.487 19.2023 35.4382 19.1949C35.2908 19.1411 35.1421 19.0923 34.9936 19.0435ZM22.2448 16.7975C22.1312 16.8119 21.9903 16.8343 21.8762 16.8524L22.2448 16.7975ZM21.7339 16.8746C21.6832 16.8821 21.6303 16.8897 21.5758 16.8975C21.3965 16.9233 21.1997 16.9516 21.009 16.9847L21.0071 16.9851C20.9084 17.0024 20.7795 17.0285 20.6731 17.05C20.6151 17.0617 20.5638 17.072 20.5278 17.0789L20.525 17.0794C20.4727 17.0895 20.4173 17.1 20.3598 17.1109C20.1795 17.145 19.9785 17.183 19.7864 17.226C19.6795 17.2495 19.5484 17.2822 19.4405 17.3092C19.3862 17.3228 19.3378 17.3349 19.3013 17.3436L21.7339 16.8746Z" stroke="#FF37A1" stroke-width="2"/>
<path d="M1 39.3021C1 26.383 12.1358 15.8096 26 15.8096C39.8642 15.8096 51 26.383 51 39.3021C51 47.5323 46.4926 54.7973 39.6281 59.0001H12.3719C5.5074 54.7973 1 47.5323 1 39.3021Z" stroke="#FF37A1" stroke-width="2"/>
</svg>
