<svg width="44" height="56" viewBox="0 0 44 56" fill="none" xmlns="http://www.w3.org/2000/svg">
<path d="M30.6979 1.30454L30.698 1.30465C30.9049 1.50217 33.9052 4.38301 36.8565 7.21716L40.8869 11.0876L42.2058 12.3542L42.5744 12.7082L42.6714 12.8014L42.6802 12.8099C42.8741 13.0251 43 13.2241 43 13.5074V47.4256C43 51.5585 39.464 55 35.0215 55H8.97849C4.53613 55 1 51.5585 1 47.4256V8.57443C1 4.44167 4.53614 1 8.97849 1H29.6058L29.6089 1.00005L29.6122 1.00007L29.6165 1.0001L29.6182 1.0001L29.6345 1.00011L29.9245 1.00013C30.1766 1.00013 30.2988 1.03367 30.3711 1.06398C30.445 1.09493 30.5383 1.15209 30.6979 1.30454ZM29.9245 0.631411C29.9236 0.632953 29.9228 0.63449 29.9219 0.636023L29.9218 0.000131914C29.9227 0.000131914 29.9236 0.000131914 29.9245 0.000131914C29.9938 0.000131914 30.0599 0.00200929 30.123 0.00579584C30.104 0.25017 30.0183 0.464759 29.9245 0.631411Z" stroke="#FF37A1" stroke-width="2"/>
</svg>
