<svg width="18" height="18" viewBox="0 0 18 18" fill="none" xmlns="http://www.w3.org/2000/svg">
<path d="M13.2671 5.19047H14.0338M4.45009 1.38095H13.6504C15.3442 1.38095 16.7172 2.74542 16.7172 4.42857V13.5714C16.7172 15.2546 15.3442 16.619 13.6504 16.619H4.45009C2.75635 16.619 1.3833 15.2546 1.3833 13.5714V4.42857C1.3833 2.74542 2.75635 1.38095 4.45009 1.38095ZM9.05027 12.0476C7.35653 12.0476 5.98348 10.6832 5.98348 9C5.98348 7.31684 7.35653 5.95238 9.05027 5.95238C10.744 5.95238 12.1171 7.31684 12.1171 9C12.1171 10.6832 10.744 12.0476 9.05027 12.0476Z" stroke="#FF37A1"/>
</svg>
